<svg width="1512" height="982" viewBox="0 0 1512 982" preserveAspectRatio="xMidYMid slice" fill="none" xmlns="http://www.w3.org/2000/svg">
<path d="M133.933 373.517C136.993 367.023 144.737 364.238 151.232 367.297L191.553 386.286C198.048 389.345 200.834 397.092 197.774 403.588L190.211 419.643C188.299 423.702 188.673 428.316 190.832 432.07C204.156 443.201 215.756 456.326 225.17 470.988C228.791 474.003 233.751 475.101 238.332 473.462L254.994 467.5C261.753 465.081 269.193 468.6 271.613 475.358L286.631 517.305C289.051 524.065 285.532 531.506 278.771 533.926L260.644 540.413C255.353 542.307 251.972 547.357 251.79 552.907C251.983 556.233 252.086 559.584 252.086 562.959C252.086 563.141 252.083 563.323 252.083 563.505C252.083 563.687 252.086 563.869 252.086 564.052C252.086 567.423 251.983 570.771 251.79 574.095C251.969 579.648 255.35 584.703 260.644 586.597L278.771 593.084C285.532 595.503 289.051 602.946 286.631 609.706L271.613 651.652C269.193 658.411 261.753 661.928 254.994 659.51L238.332 653.548C233.75 651.908 228.788 653.007 225.167 656.024C215.754 670.685 204.155 683.808 190.833 694.938C188.673 698.693 188.298 703.307 190.211 707.367L197.774 723.423C200.834 729.918 198.048 737.664 191.553 740.723L151.233 759.713C144.738 762.772 136.993 759.987 133.933 753.493L126.72 738.18C124.866 734.245 121.247 731.641 117.145 730.822C105.664 733.26 93.7566 734.546 81.5487 734.546C71.2031 734.546 61.0729 733.625 51.2352 731.86C47.3215 732.781 43.906 735.342 42.1258 739.12L35.4315 753.325C32.3717 759.819 24.6281 762.603 18.1337 759.545L-22.1915 740.555C-28.6881 737.496 -31.474 729.749 -28.4132 723.253L-22.6915 711.111C-20.7199 706.927 -21.1805 702.167 -23.505 698.363C-37.4396 687.454 -49.6322 674.424 -59.5998 659.76C-63.1894 656.971 -67.9707 656.004 -72.3888 657.585L-87.3039 662.92C-94.0625 665.338 -101.501 661.82 -103.921 655.062L-118.943 613.113C-121.363 606.353 -117.844 598.909 -111.083 596.49L-97.1964 591.521C-91.8711 589.616 -88.4956 584.524 -88.3429 578.954C-88.7683 574.043 -88.9874 569.073 -88.9874 564.052C-88.9875 563.86 -88.9861 563.668 -88.9855 563.476C-88.986 563.304 -88.9875 563.131 -88.9874 562.959C-88.9874 557.937 -88.7684 552.966 -88.3429 548.055C-88.4961 542.485 -91.8716 537.393 -97.1964 535.488L-111.083 530.519C-117.844 528.1 -121.363 520.658 -118.943 513.897L-103.922 471.948C-101.502 465.19 -94.0626 461.672 -87.3039 464.09L-72.3898 469.426C-67.9722 471.006 -63.1912 470.039 -59.6017 467.251C-49.634 452.586 -37.4401 439.556 -23.505 428.646C-21.1808 424.842 -20.72 420.083 -22.6915 415.899L-28.4132 403.758C-31.4743 397.262 -28.689 389.514 -22.1925 386.455L18.1337 367.465C24.6279 364.407 32.3716 367.191 35.4315 373.684L42.1258 387.89C43.9062 391.669 47.3221 394.229 51.2362 395.149C61.0737 393.385 71.2043 392.464 81.5497 392.464C93.7582 392.464 105.666 393.75 117.148 396.187C121.249 395.368 124.866 392.763 126.719 388.83L133.933 373.517ZM81.3221 447.415C17.0783 447.415 -35.0292 499.344 -35.3068 563.505C-35.0296 627.666 17.078 679.596 81.3221 679.596C145.565 679.595 197.67 627.67 197.95 563.505C197.67 499.339 145.565 447.415 81.3221 447.415Z" fill="#6D0019"/>
<path d="M1485.71 632.462C1488.77 625.968 1496.51 623.183 1503.01 626.242L1570.06 657.824C1576.56 660.884 1579.34 668.63 1576.29 675.125L1561.37 706.786C1559.6 710.547 1559.79 714.788 1561.56 718.354C1582.44 735.321 1600.44 755.701 1614.7 778.642C1618.23 781.348 1622.93 782.259 1627.29 780.701L1660.27 768.898C1667.03 766.479 1674.47 769.997 1676.89 776.756L1701.87 846.523C1704.29 853.283 1700.77 860.724 1694.01 863.144L1659.09 875.642C1653.96 877.476 1650.62 882.272 1650.32 887.61C1650.79 893.737 1651.02 899.928 1651.02 906.174C1651.02 906.466 1651.02 906.759 1651.02 907.051C1651.02 907.274 1651.02 907.498 1651.02 907.722C1651.02 913.963 1650.79 920.148 1650.32 926.271C1650.61 931.614 1653.96 936.417 1659.09 938.253L1694.01 950.751C1700.77 953.17 1704.29 960.613 1701.87 967.373L1676.89 1037.14C1674.47 1043.9 1667.03 1047.42 1660.28 1045L1627.29 1033.19C1622.93 1031.64 1618.23 1032.55 1614.7 1035.25C1600.44 1058.19 1582.44 1078.57 1561.56 1095.54C1559.79 1099.1 1559.6 1103.35 1561.37 1107.11L1576.29 1138.77C1579.35 1145.27 1576.56 1153.01 1570.06 1156.07L1503.01 1187.65C1496.51 1190.71 1488.77 1187.93 1485.71 1181.43L1471.26 1150.76C1469.56 1147.15 1466.37 1144.65 1462.69 1143.66C1445.44 1147.56 1427.49 1149.62 1409.06 1149.62C1393.34 1149.62 1377.96 1148.12 1363.08 1145.26C1359.58 1146.33 1356.59 1148.77 1354.96 1152.23L1341.31 1181.19C1338.25 1187.69 1330.51 1190.47 1324.01 1187.41L1256.95 1155.83C1250.45 1152.77 1247.66 1145.02 1250.72 1138.53L1263.09 1112.28C1264.92 1108.4 1264.66 1104.02 1262.74 1100.39C1240.93 1083.82 1222.03 1063.63 1206.92 1040.71C1203.44 1038.25 1198.93 1037.47 1194.75 1038.96L1164.37 1049.84C1157.61 1052.25 1150.17 1048.73 1147.75 1041.98L1122.76 972.206C1120.34 965.446 1123.86 958.003 1130.62 955.584L1159.66 945.196C1164.82 943.349 1168.16 938.506 1168.42 933.144C1167.55 924.789 1167.1 916.308 1167.1 907.722C1167.1 907.435 1167.1 907.147 1167.1 906.86C1167.1 906.632 1167.1 906.403 1167.1 906.174C1167.1 897.591 1167.55 889.113 1168.42 880.761C1168.16 875.395 1164.82 870.547 1159.66 868.698L1130.62 858.311C1123.86 855.891 1120.34 848.449 1122.76 841.689L1147.75 771.918C1150.17 765.16 1157.61 761.642 1164.37 764.06L1194.75 774.931C1198.93 776.426 1203.44 775.646 1206.92 773.176C1222.03 750.267 1240.93 730.08 1262.74 713.506C1264.66 709.88 1264.92 705.494 1263.09 701.61L1250.72 675.366C1247.66 668.87 1250.45 661.123 1256.94 658.064L1324.01 626.481C1330.5 623.422 1338.25 626.207 1341.31 632.7L1354.96 661.665C1356.59 665.121 1359.58 667.563 1363.07 668.636C1377.96 665.772 1393.34 664.273 1409.06 664.273C1427.49 664.273 1445.44 666.332 1462.69 670.234C1466.37 669.241 1469.55 666.744 1471.26 663.134L1485.71 632.462ZM1408.74 742.237C1317.57 742.237 1243.62 815.956 1243.27 907.023C1243.7 998.021 1317.62 1071.66 1408.74 1071.66C1499.91 1071.66 1573.84 997.958 1574.21 906.895C1573.79 815.88 1499.87 742.238 1408.74 742.237Z" fill="#6D0019"/>
<path d="M1259.99 -163.779C1263.05 -170.274 1270.8 -173.059 1277.29 -170L1312.41 -153.464C1318.9 -150.405 1321.69 -142.659 1318.63 -136.163L1312.5 -123.147C1310.56 -119.028 1310.97 -114.341 1313.21 -110.548C1325.05 -100.566 1335.4 -88.8595 1343.86 -75.8155C1347.5 -72.7309 1352.52 -71.5844 1357.15 -73.2423L1370.63 -78.0665C1377.39 -80.4851 1384.83 -76.9669 1387.25 -70.2081L1400.33 -33.6817C1402.75 -26.9214 1399.23 -19.4789 1392.47 -17.0596L1377.62 -11.7442C1372.3 -9.84071 1368.91 -4.74661 1368.74 0.838791C1368.88 3.62181 1368.96 6.42438 1368.96 9.24406C1368.96 9.43092 1368.96 9.61777 1368.96 9.80461C1368.96 9.95334 1368.96 10.1022 1368.96 10.2509C1368.96 13.0648 1368.88 15.8612 1368.74 18.6386C1368.91 24.2306 1372.29 29.3327 1377.62 31.2382L1392.47 36.5536C1399.23 38.9729 1402.75 46.4155 1400.33 53.1757L1387.25 89.7031C1384.83 96.4618 1377.39 99.979 1370.63 97.5605L1357.15 92.7372C1352.52 91.0793 1347.5 92.2248 1343.85 95.3105C1335.4 108.353 1325.05 120.058 1313.21 130.039C1310.97 133.832 1310.56 138.522 1312.5 142.642L1318.63 155.657C1321.69 162.153 1318.9 169.899 1312.41 172.958L1277.29 189.495C1270.8 192.554 1263.06 189.769 1260 183.274L1254.19 170.953C1252.31 166.955 1248.6 164.33 1244.41 163.547C1234.06 165.701 1223.33 166.836 1212.34 166.836C1203.05 166.836 1193.95 166.025 1185.1 164.475C1181.1 165.36 1177.59 167.943 1175.77 171.79L1170.43 183.121C1167.37 189.615 1159.63 192.399 1153.14 189.341L1118.02 172.804C1111.52 169.744 1108.74 161.997 1111.8 155.501L1116.23 146.106C1118.23 141.861 1117.72 137.024 1115.32 133.183C1102.91 123.385 1092.03 111.752 1083.07 98.6933C1079.46 95.8436 1074.62 94.8382 1070.16 96.4355L1058.26 100.693C1051.5 103.111 1044.06 99.5928 1041.64 92.8349L1028.56 56.3046C1026.14 49.5443 1029.66 42.1018 1036.42 39.6825L1047.36 35.7695C1052.72 33.8496 1056.1 28.6942 1056.23 23.0732C1055.89 18.8443 1055.71 14.5681 1055.71 10.2509C1055.71 10.0598 1055.71 9.8687 1055.71 9.67766C1055.71 9.53313 1055.71 9.3886 1055.71 9.24406C1055.71 4.93102 1055.89 0.658463 1056.23 -3.56648C1056.11 -9.19232 1052.72 -14.3533 1047.36 -16.2745L1036.42 -20.1876C1029.66 -22.6067 1026.14 -30.05 1028.56 -36.8106L1041.64 -73.3409C1044.06 -80.0988 1051.5 -83.6162 1058.26 -81.1983L1070.16 -76.9415C1074.62 -75.3436 1079.46 -76.3502 1083.08 -79.2012C1092.03 -92.2589 1102.91 -103.891 1115.32 -113.688C1117.72 -117.529 1118.22 -122.366 1116.22 -126.611L1111.8 -136.006C1108.74 -142.502 1111.52 -150.249 1118.02 -153.309L1153.14 -169.846C1159.63 -172.904 1167.37 -170.12 1170.43 -163.626L1175.77 -152.295C1177.59 -148.447 1181.1 -145.866 1185.1 -144.981C1193.95 -146.531 1203.05 -147.342 1212.34 -147.342C1223.33 -147.342 1234.06 -146.207 1244.41 -144.053C1248.6 -144.836 1252.31 -147.46 1254.19 -151.458L1259.99 -163.779ZM1212.13 -96.8741C1153.1 -96.8741 1105.23 -49.1385 1105.01 9.82414C1105.31 68.7159 1153.15 116.368 1212.13 116.368C1271.16 116.368 1319.03 68.6369 1319.24 9.66985C1318.94 -49.2259 1271.1 -96.874 1212.13 -96.8741Z" fill="#6D0019"/>
</svg>
