<svg width="250" height="150" viewBox="0 0 250 150" fill="none" xmlns="http://www.w3.org/2000/svg">
<path d="M136 40C139.866 40 143 43.134 143 47C143 50.866 139.866 54 136 54H200C203.866 54 207 57.134 207 61C207 64.866 203.866 68 200 68H222C225.866 68 229 71.134 229 75C229 78.866 225.866 82 222 82H203C199.134 82 196 85.134 196 89C196 92.866 199.134 96 203 96H209C212.866 96 216 99.134 216 103C216 106.866 212.866 110 209 110H157C156.485 110 155.983 109.944 155.5 109.839C155.017 109.944 154.515 110 154 110H63C59.134 110 56 106.866 56 103C56 99.134 59.134 96 63 96H24C20.134 96 17 92.866 17 89C17 85.134 20.134 82 24 82H64C67.866 82 71 78.866 71 75C71 71.134 67.866 68 64 68H39C35.134 68 32 64.866 32 61C32 57.134 35.134 54 39 54H79C75.134 54 72 50.866 72 47C72 43.134 75.134 40 79 40H136ZM226 96C229.866 96 233 99.134 233 103C233 106.866 229.866 110 226 110C222.134 110 219 106.866 219 103C219 99.134 222.134 96 226 96Z" fill="#F3E5E9"/>
<path fill-rule="evenodd" clip-rule="evenodd" d="M85.2783 117.122L81.2081 117.694C79.0205 118.001 76.9978 116.477 76.6904 114.29L65.5565 35.0681C65.2491 32.8805 66.7733 30.8578 68.9609 30.5504L147.192 19.5557C149.38 19.2482 151.402 20.7724 151.71 22.9601C151.71 22.9601 152.422 28.0254 152.667 29.7678" fill="white"/>
<path fill-rule="evenodd" clip-rule="evenodd" d="M87.806 112.712L84.1101 113.237C82.1237 113.519 80.2896 112.138 80.0136 110.152L70.0184 38.2272C69.7424 36.241 71.129 34.402 73.1155 34.1197L144.153 24.0229C146.139 23.7406 147.974 25.1218 148.25 27.108L149.108 33.2887C149.155 33.6231 152.224 55.8226 158.314 99.887C158.62 102.1 157.094 104.144 154.906 104.453C154.883 104.457 154.859 104.46 154.836 104.463L87.806 112.712Z" fill="#8B0020" fill-opacity="0.1"/>
<path d="M85.2783 117.122L81.2081 117.694C79.0205 118.001 76.9978 116.477 76.6904 114.29L65.5565 35.0681C65.2491 32.8805 66.7733 30.8578 68.9609 30.5504L147.192 19.5557C149.38 19.2482 151.402 20.7724 151.71 22.9601C151.71 22.9601 152.422 28.0254 152.667 29.7678" stroke="#8B0020" stroke-opacity="0.6" stroke-width="2.5" stroke-linecap="round"/>
<path d="M153.5 34.3789L154 37.4993" stroke="#8B0020" stroke-opacity="0.6" stroke-width="2.5" stroke-linecap="round"/>
<path fill-rule="evenodd" clip-rule="evenodd" d="M97.5682 38.4156C97.7991 36.2186 99.7674 34.6247 101.964 34.8556L180.532 43.1134C182.729 43.3443 184.323 45.3125 184.092 47.5096L175.729 127.071C175.498 129.268 173.53 130.862 171.333 130.631L92.7659 122.374C90.5689 122.143 88.975 120.174 89.2059 117.977L97.5682 38.4156Z" fill="white"/>
<path d="M101.834 36.0988L180.401 44.3565C181.911 44.5153 183.007 45.8684 182.848 47.3789L174.486 126.941C174.327 128.451 172.974 129.547 171.464 129.388L92.8966 121.13C91.3861 120.972 90.2903 119.618 90.4491 118.108L98.8114 38.5462C98.9701 37.0358 100.323 35.94 101.834 36.0988Z" stroke="#8B0020" stroke-opacity="0.6" stroke-width="2.5"/>
<path fill-rule="evenodd" clip-rule="evenodd" d="M105.683 47.3136C105.857 45.6659 107.333 44.4705 108.981 44.6437L171.636 51.229C173.283 51.4021 174.479 52.8783 174.305 54.5261L168.765 107.236C168.592 108.884 167.116 110.079 165.468 109.906L102.813 103.32C101.166 103.147 99.9703 101.671 100.143 100.023L105.683 47.3136Z" fill="white"/>
<path fill-rule="evenodd" clip-rule="evenodd" d="M108.731 87.9358L118.529 81.3278C120.162 80.226 122.355 80.478 123.696 81.9217L130.87 89.6447C131.228 90.0302 131.823 90.0723 132.232 89.7411L147.572 77.3115C149.419 75.8142 152.158 76.2503 153.449 78.2475L163.43 93.6849L164.863 96.0768L164.177 104.202C164.129 104.762 163.629 105.173 163.07 105.111L106.107 98.7824C105.566 98.7223 105.172 98.2395 105.222 97.6969L105.977 89.4982L108.731 87.9358Z" fill="#8B0020" fill-opacity="0.1"/>
<path d="M108.85 45.8868L171.505 52.4721C172.466 52.5731 173.163 53.4342 173.062 54.3954L167.522 107.105C167.421 108.066 166.56 108.764 165.599 108.663L102.944 102.077C101.983 101.976 101.286 101.115 101.387 100.154L106.927 47.4443C107.028 46.4831 107.889 45.7858 108.85 45.8868Z" stroke="#8B0020" stroke-opacity="0.6" stroke-width="2.5"/>
<circle cx="121.022" cy="64.0084" r="6" transform="rotate(6 121.022 64.0084)" fill="#F3E5E9" stroke="#8B0020" stroke-opacity="0.6" stroke-width="2.5"/>
<path d="M106.72 89.4825C110.656 86.7641 118.529 81.3274 118.529 81.3274C120.162 80.2256 122.355 80.4776 123.696 81.9214L130.87 89.6443C131.228 90.0298 131.823 90.0719 132.232 89.7407L147.572 77.3111C149.288 75.9203 151.807 76.1843 153.198 77.9007C153.288 78.0116 153.372 78.1273 153.449 78.2471C153.449 78.2471 162.418 92.4779 164.513 95.8032" stroke="#8B0020" stroke-opacity="0.6" stroke-width="2.5" stroke-linecap="round"/>
</svg>
