<svg width="250" height="265" viewBox="0 0 250 265" fill="none" xmlns="http://www.w3.org/2000/svg">
<path d="M136 40C139.866 40 143 43.134 143 47C143 50.866 139.866 54 136 54H200C203.866 54 207 57.134 207 61C207 64.866 203.866 68 200 68H222C225.866 68 229 71.134 229 75C229 78.866 225.866 82 222 82H203C199.134 82 196 85.134 196 89C196 92.866 199.134 96 203 96H209C212.866 96 216 99.134 216 103C216 106.866 212.866 110 209 110H157C156.485 110 155.983 109.944 155.5 109.839C155.017 109.944 154.515 110 154 110H63C59.134 110 56 106.866 56 103C56 99.134 59.134 96 63 96H24C20.134 96 17 92.866 17 89C17 85.134 20.134 82 24 82H64C67.866 82 71 78.866 71 75C71 71.134 67.866 68 64 68H39C35.134 68 32 64.866 32 61C32 57.134 35.134 54 39 54H79C75.134 54 72 50.866 72 47C72 43.134 75.134 40 79 40H136ZM226 96C229.866 96 233 99.134 233 103C233 106.866 229.866 110 226 110C222.134 110 219 106.866 219 103C219 99.134 222.134 96 226 96Z" fill="#F3E5E9"/>
<path fill-rule="evenodd" clip-rule="evenodd" d="M85.2783 117.12L81.2081 117.692C79.0205 117.999 76.9978 116.475 76.6904 114.288L65.5565 35.0662C65.2491 32.8785 66.7733 30.8559 68.9609 30.5484L147.192 19.5537C149.38 19.2463 151.402 20.7705 151.71 22.9581C151.71 22.9581 152.422 28.0235 152.667 29.7659" fill="white"/>
<path fill-rule="evenodd" clip-rule="evenodd" d="M87.8055 112.71L84.1097 113.235C82.1232 113.517 80.2891 112.136 80.0131 110.15L70.0179 38.2252C69.7419 36.2391 71.1285 34.4001 73.115 34.1177L144.152 24.021C146.139 23.7386 147.973 25.1199 148.249 27.106L149.108 33.2867C149.154 33.6212 152.223 55.8206 158.314 99.8851C158.619 102.098 157.094 104.142 154.906 104.451C154.882 104.455 154.859 104.458 154.835 104.461L87.8055 112.71Z" fill="#8B0020" fill-opacity="0.1"/>
<path d="M85.2783 117.12L81.2081 117.692C79.0205 117.999 76.9978 116.475 76.6904 114.288L65.5565 35.0662C65.2491 32.8785 66.7733 30.8559 68.9609 30.5484L147.192 19.5537C149.38 19.2463 151.402 20.7705 151.71 22.9581C151.71 22.9581 152.422 28.0235 152.667 29.7659" stroke="#8B0020" stroke-opacity="0.6" stroke-width="2.5" stroke-linecap="round"/>
<path d="M153.5 34.3789L154 37.4993" stroke="#8B0020" stroke-opacity="0.6" stroke-width="2.5" stroke-linecap="round"/>
<path fill-rule="evenodd" clip-rule="evenodd" d="M97.5687 38.4156C97.7996 36.2186 99.7679 34.6247 101.965 34.8556L180.532 43.1134C182.729 43.3443 184.323 45.3125 184.092 47.5096L175.73 127.071C175.499 129.268 173.531 130.862 171.334 130.631L92.7664 122.374C90.5694 122.143 88.9755 120.174 89.2064 117.977L97.5687 38.4156Z" fill="white"/>
<path d="M101.834 36.0988L180.401 44.3565C181.912 44.5153 183.008 45.8684 182.849 47.3789L174.487 126.941C174.328 128.451 172.975 129.547 171.464 129.388L92.8971 121.13C91.3866 120.972 90.2908 119.618 90.4496 118.108L98.8119 38.5462C98.9706 37.0358 100.324 35.94 101.834 36.0988Z" stroke="#8B0020" stroke-opacity="0.6" stroke-width="2.5"/>
<path fill-rule="evenodd" clip-rule="evenodd" d="M105.683 47.3117C105.856 45.6639 107.332 44.4685 108.98 44.6417L171.635 51.227C173.283 51.4002 174.478 52.8764 174.305 54.5242L168.765 107.234C168.592 108.882 167.116 110.077 165.468 109.904L102.813 103.319C101.165 103.145 99.9698 101.669 100.143 100.021L105.683 47.3117Z" fill="white"/>
<path fill-rule="evenodd" clip-rule="evenodd" d="M108.731 87.9358L118.529 81.3278C120.162 80.226 122.355 80.478 123.696 81.9217L130.87 89.6447C131.228 90.0302 131.823 90.0723 132.232 89.7411L147.572 77.3115C149.419 75.8142 152.158 76.2503 153.449 78.2475L163.43 93.6849L164.863 96.0768L164.177 104.202C164.129 104.762 163.629 105.173 163.07 105.111L106.107 98.7824C105.566 98.7223 105.172 98.2395 105.222 97.6969L105.977 89.4982L108.731 87.9358Z" fill="#8B0020" fill-opacity="0.1"/>
<path d="M108.849 45.8849L171.504 52.4702C172.466 52.5712 173.163 53.4323 173.062 54.3935L167.522 107.103C167.421 108.064 166.56 108.762 165.599 108.661L102.944 102.075C101.982 101.974 101.285 101.113 101.386 100.152L106.926 47.4424C107.027 46.4811 107.888 45.7838 108.849 45.8849Z" stroke="#8B0020" stroke-opacity="0.6" stroke-width="2.5"/>
<circle cx="121.022" cy="64.0084" r="6" transform="rotate(6 121.022 64.0084)" fill="#F3E5E9" stroke="#8B0020" stroke-opacity="0.6" stroke-width="2.5"/>
<path d="M106.719 89.4825C110.655 86.7641 118.528 81.3274 118.528 81.3274C120.162 80.2256 122.355 80.4776 123.696 81.9214L130.869 89.6443C131.227 90.0298 131.823 90.0719 132.231 89.7407L147.571 77.3111C149.288 75.9203 151.807 76.1843 153.197 77.9007C153.287 78.0116 153.371 78.1273 153.449 78.2471C153.449 78.2471 162.417 92.4779 164.513 95.8032" stroke="#8B0020" stroke-opacity="0.6" stroke-width="2.5" stroke-linecap="round"/>
<path d="M87.5297 162.04V159.12C87.5297 158.613 87.5764 158.207 87.6697 157.9C87.763 157.58 87.8897 157.32 88.0497 157.12C88.2097 156.92 88.3764 156.753 88.5497 156.62L88.5297 156.54H85.4297L85.9897 154.38H92.3497V156.54C91.8564 156.54 91.4297 156.7 91.0697 157.02C90.7097 157.34 90.5297 157.927 90.5297 158.78V162.04H87.5297ZM90.3097 171.2C89.7097 171.2 89.203 171.107 88.7897 170.92C88.3764 170.733 88.063 170.453 87.8497 170.08C87.6364 169.693 87.5297 169.213 87.5297 168.64V160.04H90.5297V168.28C90.5297 168.533 90.583 168.72 90.6897 168.84C90.8097 168.96 90.9897 169.02 91.2297 169.02C91.3364 169.02 91.4497 169.007 91.5697 168.98C91.6897 168.953 91.803 168.92 91.9097 168.88L92.1897 170.8C91.9364 170.933 91.6497 171.033 91.3297 171.1C91.0097 171.167 90.6697 171.2 90.3097 171.2ZM100.223 171.2C99.2766 171.2 98.5099 171.02 97.9233 170.66C97.3499 170.3 96.9433 169.84 96.7033 169.28H96.5433L96.2233 171H93.9433V160.04H96.9433V165.28C96.9433 166.04 97.0299 166.667 97.2033 167.16C97.3766 167.64 97.6299 168 97.9633 168.24C98.2966 168.48 98.6966 168.6 99.1633 168.6C99.7233 168.6 100.15 168.433 100.443 168.1C100.737 167.767 100.883 167.233 100.883 166.5V160.04H103.883V167.16C103.883 168.027 103.743 168.76 103.463 169.36C103.197 169.96 102.79 170.42 102.243 170.74C101.697 171.047 101.023 171.2 100.223 171.2ZM101.106 158.52V153.98H103.866V158.52H101.106ZM113.153 171.2C112.206 171.2 111.44 171.02 110.853 170.66C110.28 170.3 109.873 169.84 109.633 169.28H109.473L109.153 171H106.873V160.04H109.873V165.28C109.873 166.04 109.96 166.667 110.133 167.16C110.306 167.64 110.56 168 110.893 168.24C111.226 168.48 111.626 168.6 112.093 168.6C112.653 168.6 113.08 168.433 113.373 168.1C113.666 167.767 113.813 167.233 113.813 166.5V160.04H116.813V167.16C116.813 168.027 116.673 168.76 116.393 169.36C116.126 169.96 115.72 170.42 115.173 170.74C114.626 171.047 113.953 171.2 113.153 171.2ZM107.717 158.52V157.26L109.737 156.42H116.877V158.52H107.717ZM114.317 157.3V155.04H116.877V157.3H114.317ZM120.303 162.04V158.78C120.303 157.98 120.156 157.407 119.863 157.06C119.569 156.713 119.129 156.54 118.543 156.54V155.34L120.563 154.38H125.663V156.54H122.303L122.283 156.62C122.629 156.833 122.883 157.14 123.043 157.54C123.216 157.94 123.303 158.467 123.303 159.12V162.04H120.303ZM123.083 171.2C122.483 171.2 121.976 171.107 121.563 170.92C121.149 170.733 120.836 170.453 120.623 170.08C120.409 169.693 120.303 169.213 120.303 168.64V160.04H123.303V168.28C123.303 168.533 123.356 168.72 123.463 168.84C123.583 168.96 123.763 169.02 124.003 169.02C124.109 169.02 124.223 169.007 124.343 168.98C124.463 168.953 124.576 168.92 124.683 168.88L124.963 170.8C124.709 170.933 124.423 171.033 124.103 171.1C123.783 171.167 123.443 171.2 123.083 171.2ZM127.442 171L125.542 160.04H128.462L129.002 163.9C129.042 164.22 129.089 164.66 129.142 165.22C129.209 165.767 129.269 166.407 129.322 167.14H129.382C129.502 166.647 129.609 166.2 129.702 165.8C129.795 165.387 129.882 165.02 129.962 164.7C130.055 164.367 130.135 164.08 130.202 163.84L131.282 160.04H133.102L134.182 163.84C134.249 164.08 134.322 164.367 134.402 164.7C134.495 165.02 134.589 165.387 134.682 165.8C134.789 166.2 134.895 166.647 135.002 167.14H135.062C135.129 166.407 135.182 165.767 135.222 165.22C135.275 164.66 135.329 164.22 135.382 163.9L135.942 160.04H138.842L136.962 171H134.022L132.762 166.54C132.629 166.02 132.522 165.547 132.442 165.12C132.375 164.68 132.309 164.233 132.242 163.78H132.162C132.109 164.087 132.055 164.38 132.002 164.66C131.962 164.94 131.909 165.233 131.842 165.54C131.775 165.833 131.689 166.167 131.582 166.54L130.302 171H127.442ZM147.093 171V163.88C147.093 163.24 146.92 162.78 146.573 162.5C146.226 162.22 145.693 162.08 144.973 162.08C144.28 162.08 143.6 162.187 142.933 162.4C142.28 162.6 141.713 162.84 141.233 163.12V160.64C141.62 160.453 142.166 160.267 142.873 160.08C143.58 159.88 144.393 159.78 145.313 159.78C146.02 159.78 146.653 159.867 147.213 160.04C147.786 160.213 148.2 160.553 148.453 161.06C149.013 161.233 149.413 161.573 149.653 162.08C149.906 162.573 150.033 163.213 150.033 164V171H147.093ZM143.813 171.2C142.666 171.2 141.78 170.927 141.153 170.38C140.54 169.833 140.233 169.067 140.233 168.08C140.233 167.013 140.613 166.16 141.373 165.52C142.146 164.88 143.36 164.493 145.013 164.36L147.573 164.16V166.32L145.353 166.54C144.553 166.62 143.993 166.78 143.673 167.02C143.366 167.26 143.213 167.58 143.213 167.98C143.213 168.38 143.34 168.68 143.593 168.88C143.86 169.08 144.2 169.18 144.613 169.18C144.773 169.18 144.933 169.167 145.093 169.14C145.253 169.1 145.4 169.06 145.533 169.02L145.793 170.9C145.54 170.993 145.24 171.067 144.893 171.12C144.546 171.173 144.186 171.2 143.813 171.2ZM148.393 162.22L146.753 160.84C147.22 160.68 147.586 160.48 147.853 160.24C148.12 159.987 148.26 159.68 148.273 159.32H150.893C150.893 159.733 150.806 160.133 150.633 160.52C150.473 160.893 150.206 161.227 149.833 161.52C149.473 161.813 148.993 162.047 148.393 162.22ZM157.064 171.2C155.878 171.2 154.951 170.96 154.284 170.48C153.631 169.987 153.171 169.307 152.904 168.44C152.651 167.56 152.524 166.54 152.524 165.38C152.524 164.087 152.651 163.033 152.904 162.22C153.158 161.407 153.538 160.807 154.044 160.42C154.564 160.033 155.198 159.84 155.944 159.84C156.411 159.84 156.818 159.933 157.164 160.12C157.524 160.293 157.811 160.62 158.024 161.1H158.104C158.291 160.607 158.598 160.273 159.024 160.1C159.451 159.927 159.911 159.84 160.404 159.84C161.324 159.84 162.011 160.087 162.464 160.58C162.931 161.073 163.164 161.793 163.164 162.74V171H160.164V163.3C160.164 162.887 160.098 162.607 159.964 162.46C159.831 162.313 159.651 162.24 159.424 162.24C159.171 162.24 158.978 162.313 158.844 162.46C158.724 162.607 158.644 162.853 158.604 163.2H157.424C157.371 162.813 157.271 162.56 157.124 162.44C156.978 162.307 156.804 162.24 156.604 162.24C156.271 162.24 156.011 162.48 155.824 162.96C155.651 163.44 155.564 164.253 155.564 165.4C155.564 166.147 155.618 166.787 155.724 167.32C155.844 167.84 156.044 168.24 156.324 168.52C156.604 168.787 157.004 168.92 157.524 168.92C157.684 168.92 157.831 168.913 157.964 168.9C158.098 168.873 158.211 168.84 158.304 168.8L158.604 170.94C158.391 171.033 158.158 171.1 157.904 171.14C157.651 171.18 157.371 171.2 157.064 171.2ZM158.977 158.96C158.871 158.773 158.784 158.533 158.717 158.24C158.637 157.947 158.597 157.653 158.597 157.36C158.597 156.987 158.671 156.647 158.817 156.34C158.951 156.033 159.197 155.793 159.557 155.62C159.904 155.433 160.384 155.34 160.997 155.34H163.897V157.36H161.977C161.724 157.36 161.531 157.407 161.397 157.5C161.251 157.58 161.177 157.733 161.177 157.96C161.177 158.053 161.191 158.153 161.217 158.26C161.244 158.353 161.284 158.453 161.337 158.56L158.977 158.96Z" fill="#8B0020"/>
<path d="M57.3319 195.14C57.0239 195.14 56.7439 195.093 56.4919 195C56.2493 194.897 56.0533 194.734 55.9039 194.51C55.7546 194.277 55.6799 193.964 55.6799 193.572V187.328H57.1779V193.39C57.1779 193.595 57.2199 193.745 57.3039 193.838C57.3973 193.922 57.5419 193.964 57.7379 193.964C57.8126 193.964 57.8966 193.955 57.9899 193.936C58.0833 193.917 58.1719 193.894 58.2559 193.866L58.4239 194.916C58.2466 195 58.0646 195.056 57.8779 195.084C57.7006 195.121 57.5186 195.14 57.3319 195.14ZM61.9769 195.154C61.4262 195.154 60.8989 195.098 60.3949 194.986C59.9002 194.874 59.4755 194.734 59.1209 194.566L59.5549 193.362C59.7509 193.446 59.9749 193.535 60.2269 193.628C60.4789 193.712 60.7542 193.787 61.0529 193.852C61.3515 193.908 61.6549 193.936 61.9629 193.936C62.4295 193.936 62.8029 193.857 63.0829 193.698C63.3722 193.53 63.5169 193.287 63.5169 192.97C63.5169 192.774 63.4562 192.606 63.3349 192.466C63.2135 192.317 63.0315 192.186 62.7889 192.074C62.5462 191.953 62.2429 191.831 61.8789 191.71C61.3189 191.523 60.8429 191.327 60.4509 191.122C60.0589 190.907 59.7602 190.655 59.5549 190.366C59.3495 190.067 59.2469 189.699 59.2469 189.26C59.2469 188.831 59.3589 188.462 59.5829 188.154C59.8162 187.846 60.1569 187.608 60.6049 187.44C61.0622 187.263 61.6269 187.174 62.2989 187.174C62.7655 187.174 63.1995 187.216 63.6009 187.3C64.0115 187.375 64.3289 187.482 64.5529 187.622V188.854C64.3942 188.779 64.1935 188.705 63.9509 188.63C63.7082 188.555 63.4422 188.495 63.1529 188.448C62.8729 188.401 62.5882 188.378 62.2989 188.378C61.7389 188.378 61.3375 188.462 61.0949 188.63C60.8615 188.789 60.7449 188.98 60.7449 189.204C60.7449 189.391 60.8055 189.549 60.9269 189.68C61.0482 189.811 61.2489 189.937 61.5289 190.058C61.8089 190.17 62.1729 190.305 62.6209 190.464C63.0782 190.623 63.4889 190.8 63.8529 190.996C64.2169 191.192 64.5015 191.439 64.7069 191.738C64.9122 192.037 65.0149 192.41 65.0149 192.858C65.0149 193.259 64.9169 193.637 64.7209 193.992C64.5342 194.337 64.2169 194.617 63.7689 194.832C63.3302 195.047 62.7329 195.154 61.9769 195.154ZM58.7871 186.152V185.508L59.9211 185.018H64.8771V186.152H58.7871ZM63.5191 184.142V181.762H64.8911V184.142H63.5191ZM70.5739 195.14C69.9579 195.14 69.4352 195.019 69.0059 194.776C68.5859 194.533 68.2965 194.202 68.1379 193.782H68.0539L67.9419 195H66.7519V187.328H68.2499V191.542C68.2499 192.027 68.3245 192.443 68.4739 192.788C68.6232 193.133 68.8425 193.399 69.1319 193.586C69.4212 193.773 69.7712 193.866 70.1819 193.866C70.6859 193.866 71.0639 193.731 71.3159 193.46C71.5679 193.18 71.6939 192.769 71.6939 192.228V187.328H73.1919V192.424C73.1919 193.031 73.0892 193.535 72.8839 193.936C72.6785 194.337 72.3799 194.641 71.9879 194.846C71.5959 195.042 71.1245 195.14 70.5739 195.14ZM79.8145 195V189.932C79.8145 189.372 79.6792 188.975 79.4085 188.742C79.1472 188.499 78.7178 188.378 78.1205 188.378C77.6445 188.378 77.1872 188.443 76.7485 188.574C76.3192 188.705 75.9178 188.877 75.5445 189.092V187.762C75.8152 187.622 76.1838 187.491 76.6505 187.37C77.1265 187.239 77.6632 187.174 78.2605 187.174C78.7552 187.174 79.1845 187.235 79.5485 187.356C79.9125 187.468 80.1785 187.678 80.3465 187.986C80.7012 188.135 80.9485 188.373 81.0885 188.7C81.2285 189.027 81.2985 189.428 81.2985 189.904V195H79.8145ZM77.4345 195.14C76.6225 195.14 75.9972 194.953 75.5585 194.58C75.1292 194.197 74.9145 193.651 74.9145 192.942C74.9145 192.177 75.1898 191.579 75.7405 191.15C76.3005 190.721 77.2012 190.469 78.4425 190.394L80.0945 190.282V191.458L78.6245 191.57C77.7938 191.635 77.2152 191.775 76.8885 191.99C76.5712 192.205 76.4125 192.508 76.4125 192.9C76.4125 193.283 76.5338 193.563 76.7765 193.74C77.0192 193.917 77.3505 194.006 77.7705 194.006C77.9198 194.006 78.0552 193.997 78.1765 193.978C78.3072 193.95 78.4285 193.922 78.5405 193.894L78.7225 194.944C78.5452 195.009 78.3445 195.056 78.1205 195.084C77.9058 195.121 77.6772 195.14 77.4345 195.14ZM80.3045 188.532L79.4785 187.79C79.7492 187.734 79.9872 187.627 80.1925 187.468C80.3978 187.309 80.5005 187.095 80.5005 186.824H81.9005C81.9005 187.113 81.8352 187.375 81.7045 187.608C81.5738 187.841 81.3872 188.037 81.1445 188.196C80.9112 188.345 80.6312 188.457 80.3045 188.532ZM85.7933 195.154C85.2426 195.154 84.7153 195.098 84.2113 194.986C83.7166 194.874 83.2919 194.734 82.9373 194.566L83.3713 193.362C83.5673 193.446 83.7913 193.535 84.0433 193.628C84.2953 193.712 84.5706 193.787 84.8693 193.852C85.1679 193.908 85.4713 193.936 85.7793 193.936C86.2459 193.936 86.6193 193.857 86.8993 193.698C87.1886 193.53 87.3333 193.287 87.3333 192.97C87.3333 192.774 87.2726 192.606 87.1513 192.466C87.0299 192.317 86.8479 192.186 86.6053 192.074C86.3626 191.953 86.0593 191.831 85.6953 191.71C85.1353 191.523 84.6593 191.327 84.2673 191.122C83.8753 190.907 83.5766 190.655 83.3713 190.366C83.1659 190.067 83.0633 189.699 83.0633 189.26C83.0633 188.831 83.1753 188.462 83.3993 188.154C83.6326 187.846 83.9733 187.608 84.4213 187.44C84.8786 187.263 85.4433 187.174 86.1153 187.174C86.5819 187.174 87.0159 187.216 87.4173 187.3C87.8279 187.375 88.1453 187.482 88.3693 187.622V188.854C88.2106 188.779 88.0099 188.705 87.7673 188.63C87.5246 188.555 87.2586 188.495 86.9693 188.448C86.6893 188.401 86.4046 188.378 86.1153 188.378C85.5553 188.378 85.1539 188.462 84.9113 188.63C84.6779 188.789 84.5613 188.98 84.5613 189.204C84.5613 189.391 84.6219 189.549 84.7433 189.68C84.8646 189.811 85.0653 189.937 85.3453 190.058C85.6253 190.17 85.9893 190.305 86.4373 190.464C86.8946 190.623 87.3053 190.8 87.6693 190.996C88.0333 191.192 88.3179 191.439 88.5233 191.738C88.7286 192.037 88.8313 192.41 88.8313 192.858C88.8313 193.259 88.7333 193.637 88.5373 193.992C88.3506 194.337 88.0333 194.617 87.5853 194.832C87.1466 195.047 86.5493 195.154 85.7933 195.154ZM84.6895 186.166V185.522C84.8575 185.485 85.0348 185.433 85.2215 185.368C85.4081 185.293 85.5668 185.2 85.6975 185.088C85.8188 184.967 85.8795 184.822 85.8795 184.654C85.8795 184.542 85.8468 184.449 85.7815 184.374C85.7068 184.29 85.5995 184.248 85.4595 184.248C85.3755 184.248 85.2868 184.267 85.1935 184.304C85.1001 184.332 85.0161 184.36 84.9415 184.388L84.6615 183.576C84.8481 183.427 85.0628 183.329 85.3055 183.282C85.5481 183.226 85.7488 183.198 85.9075 183.198C86.2901 183.198 86.5935 183.301 86.8175 183.506C87.0321 183.711 87.1395 183.982 87.1395 184.318C87.1395 184.561 87.0788 184.775 86.9575 184.962C86.8268 185.149 86.6635 185.298 86.4675 185.41L86.3555 185.074H89.0995V186.166H84.6895ZM92.5843 195V189.666C92.5843 189.227 92.4816 188.905 92.2763 188.7C92.0803 188.495 91.7443 188.392 91.2683 188.392C90.9416 188.392 90.6336 188.439 90.3443 188.532C90.0643 188.616 89.7983 188.733 89.5463 188.882V187.594C89.7423 187.501 90.0129 187.407 90.3583 187.314C90.7129 187.221 91.1329 187.174 91.6183 187.174C92.1129 187.174 92.5423 187.249 92.9063 187.398C93.2796 187.538 93.5689 187.771 93.7743 188.098C93.9796 188.425 94.0823 188.868 94.0823 189.428V195H92.5843ZM97.5408 195L95.1888 187.328H96.7008L98.6748 193.74H98.8148C99.0108 193.74 99.2021 193.689 99.3888 193.586C99.5848 193.483 99.7481 193.353 99.8788 193.194C100.131 192.905 100.317 192.541 100.439 192.102C100.56 191.663 100.621 191.229 100.621 190.8C100.621 190.072 100.462 189.503 100.145 189.092C99.8275 188.681 99.3888 188.476 98.8288 188.476C98.7168 188.476 98.6095 188.485 98.5068 188.504C98.4041 188.513 98.3201 188.532 98.2548 188.56L97.9188 187.384C98.1241 187.328 98.3155 187.291 98.4928 187.272C98.6701 187.253 98.8241 187.244 98.9548 187.244C99.4308 187.244 99.8508 187.314 100.215 187.454C100.588 187.585 100.905 187.781 101.167 188.042C101.493 188.359 101.736 188.756 101.895 189.232C102.053 189.708 102.133 190.235 102.133 190.814C102.133 191.551 102.016 192.205 101.783 192.774C101.559 193.334 101.279 193.782 100.943 194.118C100.663 194.389 100.322 194.603 99.9208 194.762C99.5195 194.921 98.9968 195 98.3528 195H97.5408ZM104.343 188.728V186.124C104.343 185.564 104.217 185.163 103.965 184.92C103.722 184.677 103.396 184.556 102.985 184.556V183.926L104.133 183.422H107.815V184.556H105.127L105.113 184.612C105.328 184.752 105.5 184.967 105.631 185.256C105.771 185.536 105.841 185.905 105.841 186.362V188.728H104.343ZM105.995 195.14C105.696 195.14 105.421 195.093 105.169 195C104.917 194.897 104.716 194.734 104.567 194.51C104.418 194.277 104.343 193.964 104.343 193.572V187.328H105.841V193.39C105.841 193.595 105.883 193.745 105.967 193.838C106.06 193.922 106.205 193.964 106.401 193.964C106.485 193.964 106.569 193.955 106.653 193.936C106.746 193.917 106.835 193.894 106.919 193.866L107.101 194.916C106.924 195 106.742 195.056 106.555 195.084C106.368 195.121 106.182 195.14 105.995 195.14ZM108.987 195L107.615 187.328H109.113L109.617 190.478C109.654 190.73 109.696 191.066 109.743 191.486C109.79 191.906 109.841 192.396 109.897 192.956H109.939C110.023 192.573 110.102 192.228 110.177 191.92C110.252 191.612 110.322 191.337 110.387 191.094C110.452 190.842 110.513 190.623 110.569 190.436L111.451 187.328H112.557L113.453 190.436C113.5 190.623 113.556 190.842 113.621 191.094C113.696 191.337 113.77 191.612 113.845 191.92C113.92 192.228 113.999 192.573 114.083 192.956H114.125C114.181 192.396 114.228 191.906 114.265 191.486C114.312 191.066 114.358 190.73 114.405 190.478L114.909 187.328H116.407L115.049 195H113.579L112.417 191.136C112.342 190.865 112.272 190.599 112.207 190.338C112.151 190.067 112.1 189.741 112.053 189.358H111.997C111.96 189.61 111.918 189.839 111.871 190.044C111.834 190.24 111.792 190.427 111.745 190.604C111.698 190.781 111.647 190.959 111.591 191.136L110.429 195H108.987ZM122.484 195V189.932C122.484 189.372 122.349 188.975 122.078 188.742C121.817 188.499 121.388 188.378 120.79 188.378C120.314 188.378 119.857 188.443 119.418 188.574C118.989 188.705 118.588 188.877 118.214 189.092V187.762C118.485 187.622 118.854 187.491 119.32 187.37C119.796 187.239 120.333 187.174 120.93 187.174C121.425 187.174 121.854 187.235 122.218 187.356C122.582 187.468 122.848 187.678 123.016 187.986C123.371 188.135 123.618 188.373 123.758 188.7C123.898 189.027 123.968 189.428 123.968 189.904V195H122.484ZM120.104 195.14C119.292 195.14 118.667 194.953 118.228 194.58C117.799 194.197 117.584 193.651 117.584 192.942C117.584 192.177 117.86 191.579 118.41 191.15C118.97 190.721 119.871 190.469 121.112 190.394L122.764 190.282V191.458L121.294 191.57C120.464 191.635 119.885 191.775 119.558 191.99C119.241 192.205 119.082 192.508 119.082 192.9C119.082 193.283 119.204 193.563 119.446 193.74C119.689 193.917 120.02 194.006 120.44 194.006C120.59 194.006 120.725 193.997 120.846 193.978C120.977 193.95 121.098 193.922 121.21 193.894L121.392 194.944C121.215 195.009 121.014 195.056 120.79 195.084C120.576 195.121 120.347 195.14 120.104 195.14ZM122.974 188.532L122.148 187.79C122.419 187.734 122.657 187.627 122.862 187.468C123.068 187.309 123.17 187.095 123.17 186.824H124.57C124.57 187.113 124.505 187.375 124.374 187.608C124.244 187.841 124.057 188.037 123.814 188.196C123.581 188.345 123.301 188.457 122.974 188.532ZM128.939 195.14C128.146 195.14 127.53 194.963 127.091 194.608C126.653 194.253 126.345 193.768 126.167 193.152C125.999 192.536 125.915 191.827 125.915 191.024C125.915 190.109 125.999 189.372 126.167 188.812C126.345 188.252 126.606 187.841 126.951 187.58C127.297 187.319 127.717 187.188 128.211 187.188C128.538 187.188 128.818 187.249 129.051 187.37C129.285 187.482 129.457 187.678 129.569 187.958H129.625C129.728 187.669 129.905 187.468 130.157 187.356C130.419 187.244 130.717 187.188 131.053 187.188C131.669 187.188 132.141 187.351 132.467 187.678C132.803 188.005 132.971 188.499 132.971 189.162V195H131.473V189.288C131.473 188.952 131.403 188.723 131.263 188.602C131.123 188.481 130.941 188.42 130.717 188.42C130.475 188.42 130.297 188.481 130.185 188.602C130.073 188.723 130.003 188.924 129.975 189.204H129.177C129.14 188.896 129.047 188.691 128.897 188.588C128.757 188.476 128.599 188.42 128.421 188.42C128.095 188.42 127.843 188.621 127.665 189.022C127.497 189.423 127.413 190.095 127.413 191.038C127.413 191.645 127.46 192.167 127.553 192.606C127.647 193.035 127.815 193.367 128.057 193.6C128.309 193.824 128.673 193.936 129.149 193.936C129.308 193.936 129.443 193.927 129.555 193.908C129.677 193.889 129.784 193.866 129.877 193.838L130.031 194.958C129.891 195.023 129.723 195.07 129.527 195.098C129.341 195.126 129.145 195.14 128.939 195.14ZM130.35 186.53C130.285 186.418 130.234 186.278 130.196 186.11C130.15 185.933 130.126 185.755 130.126 185.578C130.126 185.363 130.168 185.163 130.252 184.976C130.336 184.789 130.495 184.64 130.728 184.528C130.952 184.416 131.26 184.36 131.652 184.36H133.598V185.452H132.086C131.9 185.452 131.755 185.485 131.652 185.55C131.54 185.615 131.484 185.732 131.484 185.9C131.484 185.965 131.498 186.035 131.526 186.11C131.545 186.185 131.573 186.259 131.61 186.334L130.35 186.53ZM136.998 195.14C136.69 195.14 136.41 195.093 136.158 195C135.915 194.897 135.719 194.734 135.57 194.51C135.421 194.277 135.346 193.964 135.346 193.572V187.328H136.844V193.39C136.844 193.595 136.886 193.745 136.97 193.838C137.063 193.922 137.208 193.964 137.404 193.964C137.479 193.964 137.563 193.955 137.656 193.936C137.749 193.917 137.838 193.894 137.922 193.866L138.09 194.916C137.913 195 137.731 195.056 137.544 195.084C137.367 195.121 137.185 195.14 136.998 195.14ZM140.932 195.14C140.624 195.14 140.344 195.093 140.092 195C139.849 194.897 139.653 194.734 139.504 194.51C139.355 194.277 139.28 193.964 139.28 193.572V187.328H140.778V193.39C140.778 193.595 140.82 193.745 140.904 193.838C140.997 193.922 141.142 193.964 141.338 193.964C141.413 193.964 141.497 193.955 141.59 193.936C141.683 193.917 141.772 193.894 141.856 193.866L142.024 194.916C141.847 195 141.665 195.056 141.478 195.084C141.301 195.121 141.119 195.14 140.932 195.14ZM145.58 195.154C145.03 195.154 144.502 195.098 143.998 194.986C143.504 194.874 143.079 194.734 142.724 194.566L143.158 193.362C143.354 193.446 143.578 193.535 143.83 193.628C144.082 193.712 144.358 193.787 144.656 193.852C144.955 193.908 145.258 193.936 145.566 193.936C146.033 193.936 146.406 193.857 146.686 193.698C146.976 193.53 147.12 193.287 147.12 192.97C147.12 192.774 147.06 192.606 146.938 192.466C146.817 192.317 146.635 192.186 146.392 192.074C146.15 191.953 145.846 191.831 145.482 191.71C144.922 191.523 144.446 191.327 144.054 191.122C143.662 190.907 143.364 190.655 143.158 190.366C142.953 190.067 142.85 189.699 142.85 189.26C142.85 188.831 142.962 188.462 143.186 188.154C143.42 187.846 143.76 187.608 144.208 187.44C144.666 187.263 145.23 187.174 145.902 187.174C146.369 187.174 146.803 187.216 147.204 187.3C147.615 187.375 147.932 187.482 148.156 187.622V188.854C147.998 188.779 147.797 188.705 147.554 188.63C147.312 188.555 147.046 188.495 146.756 188.448C146.476 188.401 146.192 188.378 145.902 188.378C145.342 188.378 144.941 188.462 144.698 188.63C144.465 188.789 144.348 188.98 144.348 189.204C144.348 189.391 144.409 189.549 144.53 189.68C144.652 189.811 144.852 189.937 145.132 190.058C145.412 190.17 145.776 190.305 146.224 190.464C146.682 190.623 147.092 190.8 147.456 190.996C147.82 191.192 148.105 191.439 148.31 191.738C148.516 192.037 148.618 192.41 148.618 192.858C148.618 193.259 148.52 193.637 148.324 193.992C148.138 194.337 147.82 194.617 147.372 194.832C146.934 195.047 146.336 195.154 145.58 195.154ZM150.173 195V192.438C150.173 191.85 150.299 191.416 150.551 191.136C150.803 190.856 151.135 190.66 151.545 190.548L151.559 190.492L150.033 189.918V189.484C150.033 189.083 150.159 188.705 150.411 188.35C150.673 187.995 151.046 187.711 151.531 187.496C152.017 187.281 152.605 187.174 153.295 187.174C153.902 187.174 154.453 187.272 154.947 187.468C155.442 187.655 155.834 187.949 156.123 188.35C156.413 188.751 156.557 189.274 156.557 189.918V195H155.059V190.044C155.059 189.465 154.891 189.05 154.555 188.798C154.219 188.537 153.79 188.406 153.267 188.406C152.735 188.406 152.32 188.518 152.021 188.742C151.723 188.957 151.569 189.232 151.559 189.568L153.001 190.268L152.875 191.01C152.53 191.019 152.241 191.136 152.007 191.36C151.783 191.584 151.671 191.929 151.671 192.396V195H150.173ZM158.677 195V192.438C158.677 191.85 158.803 191.416 159.055 191.136C159.307 190.856 159.639 190.66 160.049 190.548L160.063 190.492L158.537 189.918V189.484C158.537 189.083 158.663 188.705 158.915 188.35C159.177 187.995 159.55 187.711 160.035 187.496C160.521 187.281 161.109 187.174 161.799 187.174C162.406 187.174 162.957 187.272 163.451 187.468C163.946 187.655 164.338 187.949 164.627 188.35C164.917 188.751 165.061 189.274 165.061 189.918V195H163.563V190.044C163.563 189.465 163.395 189.05 163.059 188.798C162.723 188.537 162.294 188.406 161.771 188.406C161.239 188.406 160.824 188.518 160.525 188.742C160.227 188.957 160.073 189.232 160.063 189.568L161.505 190.268L161.379 191.01C161.034 191.019 160.745 191.136 160.511 191.36C160.287 191.584 160.175 191.929 160.175 192.396V195H158.677ZM163.038 186.152C162.637 186.152 162.32 186.096 162.086 185.984C161.844 185.863 161.671 185.713 161.568 185.536C161.456 185.349 161.4 185.153 161.4 184.948C161.4 184.799 161.424 184.64 161.47 184.472C161.508 184.304 161.564 184.159 161.638 184.038L162.828 184.22C162.81 184.267 162.791 184.332 162.772 184.416C162.754 184.5 162.744 184.579 162.744 184.654C162.744 184.775 162.782 184.878 162.856 184.962C162.931 185.046 163.062 185.088 163.248 185.088H166.636V186.152H163.038ZM169.883 195.14C169.333 195.14 168.857 195.042 168.455 194.846C168.063 194.641 167.765 194.337 167.559 193.936C167.354 193.525 167.251 193.007 167.251 192.382V187.328H168.749V192.228C168.749 192.769 168.88 193.18 169.141 193.46C169.403 193.731 169.781 193.866 170.275 193.866C170.882 193.866 171.349 193.661 171.675 193.25C172.011 192.839 172.179 192.27 172.179 191.542V187.328H173.677V195H172.487L172.375 193.852H172.291C172.123 194.225 171.834 194.533 171.423 194.776C171.022 195.019 170.509 195.14 169.883 195.14ZM177.836 195.14C177.528 195.14 177.248 195.093 176.996 195C176.753 194.897 176.557 194.734 176.408 194.51C176.259 194.277 176.184 193.964 176.184 193.572V187.328H177.682V193.39C177.682 193.595 177.724 193.745 177.808 193.838C177.901 193.922 178.046 193.964 178.242 193.964C178.317 193.964 178.401 193.955 178.494 193.936C178.587 193.917 178.676 193.894 178.76 193.866L178.928 194.916C178.751 195 178.569 195.056 178.382 195.084C178.205 195.121 178.023 195.14 177.836 195.14ZM184.637 195V189.932C184.637 189.372 184.501 188.975 184.231 188.742C183.969 188.499 183.54 188.378 182.943 188.378C182.467 188.378 182.009 188.443 181.571 188.574C181.141 188.705 180.74 188.877 180.367 189.092V187.762C180.637 187.622 181.006 187.491 181.473 187.37C181.949 187.239 182.49 187.174 183.097 187.174C183.582 187.174 184.011 187.23 184.385 187.342C184.758 187.445 185.071 187.603 185.323 187.818C185.584 188.033 185.78 188.313 185.911 188.658C186.051 189.003 186.121 189.419 186.121 189.904V195H184.637ZM182.257 195.14C181.445 195.14 180.819 194.953 180.381 194.58C179.951 194.197 179.737 193.651 179.737 192.942C179.737 192.177 180.012 191.579 180.563 191.15C181.123 190.721 182.023 190.469 183.265 190.394L184.917 190.282V191.458L183.447 191.57C182.616 191.635 182.037 191.775 181.711 191.99C181.393 192.205 181.235 192.508 181.235 192.9C181.235 193.283 181.356 193.563 181.599 193.74C181.841 193.917 182.173 194.006 182.593 194.006C182.742 194.006 182.877 193.997 182.999 193.978C183.129 193.95 183.251 193.922 183.363 193.894L183.545 194.944C183.367 195.009 183.167 195.056 182.943 195.084C182.728 195.121 182.499 195.14 182.257 195.14ZM191.33 195.14C190.546 195.14 189.921 195.042 189.454 194.846C188.988 194.65 188.647 194.375 188.432 194.02C188.227 193.656 188.124 193.236 188.124 192.76C188.124 192.331 188.185 191.99 188.306 191.738C188.437 191.477 188.6 191.285 188.796 191.164C188.992 191.043 189.193 190.959 189.398 190.912V190.856C189.202 190.791 189.002 190.693 188.796 190.562C188.6 190.431 188.432 190.254 188.292 190.03C188.162 189.797 188.096 189.503 188.096 189.148C188.096 188.821 188.171 188.513 188.32 188.224C188.479 187.925 188.731 187.683 189.076 187.496C189.422 187.309 189.874 187.216 190.434 187.216C190.677 187.216 190.924 187.235 191.176 187.272C191.428 187.309 191.624 187.365 191.764 187.44L191.512 188.532C191.419 188.504 191.293 188.476 191.134 188.448C190.985 188.42 190.826 188.406 190.658 188.406C190.304 188.406 190.038 188.49 189.86 188.658C189.692 188.826 189.608 189.045 189.608 189.316C189.608 189.615 189.683 189.843 189.832 190.002C189.982 190.151 190.173 190.254 190.406 190.31C190.649 190.366 190.896 190.394 191.148 190.394H191.428V191.416H191.148C190.635 191.416 190.257 191.509 190.014 191.696C189.772 191.873 189.65 192.177 189.65 192.606C189.65 192.839 189.697 193.063 189.79 193.278C189.893 193.483 190.066 193.647 190.308 193.768C190.551 193.889 190.896 193.95 191.344 193.95C191.783 193.95 192.124 193.889 192.366 193.768C192.609 193.647 192.782 193.474 192.884 193.25C192.996 193.026 193.052 192.76 193.052 192.452V187.328H194.55V192.368C194.55 193.339 194.289 194.043 193.766 194.482C193.244 194.921 192.432 195.14 191.33 195.14Z" fill="#8B9096"/>
</svg>
