<svg width="96" height="96" viewBox="0 0 96 96" fill="none" xmlns="http://www.w3.org/2000/svg">
<path d="M96 48.0002C96 63.2236 88.9134 76.7916 77.8586 85.5849C69.6632 92.1057 59.2885 96 48.0003 96C36.712 96 26.3373 92.1057 18.1415 85.5849C7.08707 76.7916 2.67029e-05 63.2236 2.67029e-05 48.0002C2.67029e-05 21.4909 21.4914 0 48.0003 0C74.5091 0 96 21.4909 96 48.0002Z" fill="#C01300" fill-opacity="0.52"/>
<path d="M47.9998 63.3021C58.3026 63.3021 66.6547 54.95 66.6547 44.6472C66.6547 34.3443 58.3026 25.9922 47.9998 25.9922C37.6969 25.9922 29.3448 34.3443 29.3448 44.6472C29.3448 54.95 37.6969 63.3021 47.9998 63.3021Z" fill="#FFC2BD"/>
<path d="M77.8585 85.5852C69.6632 92.1061 59.2885 96.0003 48.0002 96.0003C36.712 96.0003 26.3373 92.1061 18.1415 85.5852C24.1429 76.7687 35.2686 70.8477 48.0002 70.8477C60.7319 70.8477 71.8585 76.7674 77.8585 85.5852Z" fill="#FFC2BD"/>
</svg>
